<mxfile host="app.diagrams.net" modified="2024-06-11T20:06:37.336Z" agent="Mozilla/5.0 (Windows NT 10.0; Win64; x64) AppleWebKit/537.36 (KHTML, like Gecko) Chrome/125.0.0.0 Safari/537.36" etag="Y1ieWPS4z9Xr_Itxpr5H" version="24.4.3" type="device">
  <diagram name="1 oldal" id="F2igTYH0mLVUZVxGnF81">
    <mxGraphModel dx="988" dy="562" grid="1" gridSize="10" guides="1" tooltips="1" connect="1" arrows="1" fold="1" page="1" pageScale="1" pageWidth="827" pageHeight="1169" math="0" shadow="0">
      <root>
        <mxCell id="0" />
        <mxCell id="1" parent="0" />
        <mxCell id="n1aCWP1W-HhFW8RY2o_F-1" value="service 1" style="rounded=0;whiteSpace=wrap;html=1;horizontal=1;verticalAlign=top;fillColor=#fff2cc;strokeColor=#d6b656;" vertex="1" parent="1">
          <mxGeometry x="80" y="100" width="440" height="130" as="geometry" />
        </mxCell>
        <mxCell id="n1aCWP1W-HhFW8RY2o_F-5" style="edgeStyle=orthogonalEdgeStyle;rounded=0;orthogonalLoop=1;jettySize=auto;html=1;exitX=1;exitY=0.5;exitDx=0;exitDy=0;" edge="1" parent="1" source="n1aCWP1W-HhFW8RY2o_F-2" target="n1aCWP1W-HhFW8RY2o_F-3">
          <mxGeometry relative="1" as="geometry" />
        </mxCell>
        <mxCell id="n1aCWP1W-HhFW8RY2o_F-2" value="Micrometer API" style="rounded=0;whiteSpace=wrap;html=1;fillColor=#ffe6cc;strokeColor=#d79b00;" vertex="1" parent="1">
          <mxGeometry x="90" y="135" width="120" height="60" as="geometry" />
        </mxCell>
        <mxCell id="n1aCWP1W-HhFW8RY2o_F-7" style="edgeStyle=orthogonalEdgeStyle;rounded=0;orthogonalLoop=1;jettySize=auto;html=1;exitX=1;exitY=0.5;exitDx=0;exitDy=0;entryX=0;entryY=0.5;entryDx=0;entryDy=0;" edge="1" parent="1" source="n1aCWP1W-HhFW8RY2o_F-3" target="n1aCWP1W-HhFW8RY2o_F-4">
          <mxGeometry relative="1" as="geometry" />
        </mxCell>
        <mxCell id="n1aCWP1W-HhFW8RY2o_F-3" value="micrometer-tracing-bridge-brave" style="rounded=0;whiteSpace=wrap;html=1;fillColor=#ffe6cc;strokeColor=#d79b00;" vertex="1" parent="1">
          <mxGeometry x="230" y="135" width="120" height="60" as="geometry" />
        </mxCell>
        <mxCell id="n1aCWP1W-HhFW8RY2o_F-9" style="edgeStyle=orthogonalEdgeStyle;rounded=0;orthogonalLoop=1;jettySize=auto;html=1;exitX=1;exitY=0.5;exitDx=0;exitDy=0;entryX=0;entryY=0.5;entryDx=0;entryDy=0;" edge="1" parent="1" source="n1aCWP1W-HhFW8RY2o_F-4" target="n1aCWP1W-HhFW8RY2o_F-8">
          <mxGeometry relative="1" as="geometry" />
        </mxCell>
        <mxCell id="n1aCWP1W-HhFW8RY2o_F-4" value="zipkin-reporter-brave" style="rounded=0;whiteSpace=wrap;html=1;fillColor=#ffe6cc;strokeColor=#d79b00;" vertex="1" parent="1">
          <mxGeometry x="370" y="135" width="120" height="60" as="geometry" />
        </mxCell>
        <mxCell id="n1aCWP1W-HhFW8RY2o_F-8" value="Zipkin" style="rounded=0;whiteSpace=wrap;html=1;horizontal=1;verticalAlign=top;fillColor=#fff2cc;strokeColor=#d6b656;" vertex="1" parent="1">
          <mxGeometry x="550" y="100" width="200" height="130" as="geometry" />
        </mxCell>
      </root>
    </mxGraphModel>
  </diagram>
</mxfile>
